<?xml version="1.0" standalone="no"?>
<!DOCTYPE svg PUBLIC "-//W3C//DTD SVG 20010904//EN"
 "http://www.w3.org/TR/2001/REC-SVG-20010904/DTD/svg10.dtd">
<svg version="1.0" xmlns="http://www.w3.org/2000/svg"
 width="265.000000pt" height="265.000000pt" viewBox="0 0 265.000000 265.000000"
 preserveAspectRatio="xMidYMid meet">
<metadata>
Created by potrace 1.14, written by Peter Selinger 2001-2017
</metadata>
<g transform="translate(0.000000,265.000000) scale(0.100000,-0.100000)"
fill="#000000" stroke="none">
<path d="M860 2039 c-16 -18 -30 -35 -30 -39 0 -5 -33 -64 -74 -131 -40 -68
-89 -150 -107 -181 -57 -95 -322 -537 -347 -576 -12 -20 -25 -44 -29 -52 -4
-8 -9 -17 -13 -20 -3 -3 -46 -74 -95 -158 -104 -176 -104 -176 -133 -222 -27
-43 -27 -51 -3 -78 18 -21 25 -22 248 -22 207 0 231 2 245 18 8 9 45 69 82
132 90 153 89 151 107 180 18 28 39 63 112 194 42 74 49 92 41 114 -7 20 -17
27 -39 29 -31 2 -41 -7 -86 -86 -101 -177 -143 -248 -155 -262 -8 -8 -14 -18
-14 -22 0 -3 -22 -42 -50 -87 -27 -45 -50 -85 -50 -90 0 -5 -8 -11 -17 -14
-20 -6 -293 -6 -293 0 0 11 212 369 221 372 5 2 9 7 9 11 0 5 41 78 92 162
211 355 410 685 417 692 6 6 136 -197 171 -268 14 -28 67 -114 86 -140 12 -16
40 -64 63 -106 l41 -77 -27 -48 c-14 -27 -61 -105 -103 -174 -191 -310 -273
-456 -272 -480 4 -47 20 -50 255 -50 124 0 226 4 237 10 10 5 35 40 56 77 20
38 57 98 81 135 24 37 46 76 50 85 3 10 19 37 35 60 15 23 28 44 28 46 0 3 25
47 55 98 30 51 55 100 55 108 -1 44 -53 66 -83 36 -9 -8 -46 -68 -83 -132 -37
-65 -84 -146 -106 -180 -21 -34 -38 -67 -38 -72 0 -5 -4 -11 -8 -13 -5 -1 -28
-38 -52 -80 l-44 -78 -143 2 c-79 0 -146 4 -148 8 -2 4 52 101 120 216 69 114
125 212 125 216 0 4 4 8 9 8 5 0 13 10 17 22 3 12 11 26 16 32 5 6 43 70 85
141 42 72 104 175 138 230 34 55 97 162 141 237 43 76 81 137 84 138 5 0 58
-86 163 -265 28 -47 81 -132 98 -157 11 -15 19 -30 19 -32 0 -3 16 -30 35 -60
19 -30 35 -58 35 -62 0 -3 14 -26 30 -51 17 -24 30 -46 30 -48 0 -7 63 -109
70 -115 4 -3 9 -12 13 -20 4 -8 17 -31 29 -52 13 -20 61 -101 107 -180 46 -78
92 -155 102 -170 11 -14 19 -28 19 -31 0 -3 -149 -6 -330 -6 l-331 0 47 88
c47 90 52 126 23 144 -37 23 -63 1 -116 -100 -28 -54 -62 -117 -74 -139 -22
-40 -22 -42 -6 -68 l17 -26 438 0 c470 1 472 1 472 52 0 14 -17 51 -38 84 -21
32 -88 145 -150 249 -142 239 -136 229 -143 235 -3 3 -8 12 -12 20 -4 8 -18
33 -32 55 -14 22 -28 47 -32 55 -4 8 -68 116 -143 240 -75 124 -154 256 -176
293 -21 38 -51 89 -65 114 -38 66 -77 113 -95 113 -18 0 -75 -60 -68 -71 2 -4
0 -9 -4 -11 -5 -1 -42 -59 -82 -128 -40 -69 -105 -177 -144 -240 -39 -63 -76
-125 -83 -137 -6 -13 -18 -32 -26 -44 l-15 -21 -15 24 c-52 81 -233 385 -280
468 -10 19 -28 47 -38 62 -11 14 -19 31 -19 37 0 6 -4 11 -10 11 -5 0 -10 7
-10 15 0 14 -29 35 -49 35 -6 0 -24 -14 -41 -31z"/>
</g>
</svg>
